<svg width="228" height="230" xmlns="http://www.w3.org/2000/svg">
 <metadata id="metadata29">image/svg+xmlLogoODScirculo</metadata>
 <defs>
  <style>.cls-1{fill:#63b134;}.cls-2{fill:#e3b535;}.cls-3{fill:#c31b2d;}.cls-4{fill:#4c9c37;}.cls-5{fill:#3e7e45;}.cls-6{fill:#fac00f;}.cls-7{fill:#e6412d;}.cls-8{fill:#f49a2d;}.cls-9{fill:#1594d2;}.cls-10{fill:#a01a42;}.cls-11{fill:#2eb9de;}.cls-12{fill:#eb682f;}.cls-13{fill:#e3233b;}.cls-14{fill:#dc1567;}.cls-15{fill:#18496a;}.cls-16{fill:#c6972c;}.cls-17{fill:#02689c;}</style>
 </defs>
 <title>LogoODScirculo</title>
 <g>
  <title>background</title>
  <rect fill="none" id="canvas_background" height="232" width="230" y="-1" x="-1"/>
 </g>
 <g>
  <title>Layer 1</title>
  <g id="_Group_">
   <path d="m59.677513,82.927513a63.75,63.75 0 0 1 10,-13l-32.77,-36.37a113.53,113.53 0 0 0 -20.78,27.4l43.55,21.97z" class="cls-1" id="_Path_"/>
   <path d="m139.977513,57.237513a62.38,62.38 0 0 1 13.73,8.72l32.85,-36.31a111.58,111.58 0 0 0 -29.11,-18.38l-17.47,45.97z" class="cls-2" id="_Path_2"/>
   <path d="m215.197513,68.177513l-43.53,22a64.11,64.11 0 0 1 4.35,15.58l48.43,-4.63a112.49,112.49 0 0 0 -9.25,-32.91" class="cls-3" id="_Path_3"/>
   <path d="m168.537513,83.777513l43.53,-22a113.18,113.18 0 0 0 -20.34,-27.31l-32.85,36.29a63.76,63.76 0 0 1 9.66,13" class="cls-4" id="_Path_4"/>
   <path d="m51.017513,115.087513c0,-1 0,-2 0.08,-3l-48.44,-4.39c-0.15,2.43 -0.25,4.88 -0.25,7.35a114.49,114.49 0 0 0 3.3,27.33l46.79,-13.6a64.3,64.3 0 0 1 -1.48,-13.69" class="cls-5" id="_Path_5"/>
   <path d="m162.437513,155.377513a63.9,63.9 0 0 1 -11.81,11.25l25.58,41.91a112.84,112.84 0 0 0 25,-23.54l-38.77,-29.62z" class="cls-6" id="_Path_6"/>
   <path d="m176.697513,115.087513a63.45,63.45 0 0 1 -1.44,13.53l46.78,13.61a114,114 0 0 0 3.27,-27.14c0,-2.32 -0.08,-4.63 -0.22,-6.92l-48.43,4.63c0,0.77 0,1.53 0,2.29" class="cls-7" id="_Path_7"/>
   <path d="m66.067513,156.377513l-38.72,29.74a112.83,112.83 0 0 0 25.28,23.19l25.57,-41.88a63.58,63.58 0 0 1 -12.13,-11.05" class="cls-8" id="_Path_8"/>
   <path d="m51.807513,105.047513a63.48,63.48 0 0 1 4.64,-15.8l-43.52,-21.94a113,113 0 0 0 -9.61,33.34l48.49,4.4z" class="cls-9" id="_Path_9"/>
   <path d="m170.257513,212.377513l-25.54,-41.87a61.92,61.92 0 0 1 -14.91,6.13l9,48.43a110.2,110.2 0 0 0 31.45,-12.69" class="cls-10" id="_Path_10"/>
   <path d="m173.397513,135.477513a64.26,64.26 0 0 1 -6.8,14.17l38.84,29.66a113,113 0 0 0 14.69,-30.23l-46.73,-13.6z" class="cls-11" id="_Path_11"/>
   <path d="m122.927513,178.037513a62.52,62.52 0 0 1 -16.38,0.23l-9,48.42a110.06,110.06 0 0 0 34.38,-0.31l-9,-48.34z" class="cls-12" id="_Path_12"/>
   <path d="m117.877513,51.607513a61.6,61.6 0 0 1 15.55,3l17.47,-46a109.61,109.61 0 0 0 -33,-6.32l-0.02,49.32z" class="cls-13" id="_Path_13"/>
   <path d="m99.617513,177.057513a62.07,62.07 0 0 1 -15.42,-5.91l-25.59,41.89a109.94,109.94 0 0 0 32,12.39l9.01,-48.37z" class="cls-14" id="_Path_14"/>
   <path d="m94.977513,54.377513a61.72,61.72 0 0 1 15.87,-2.86l0,-49.2a109.53,109.53 0 0 0 -33.46,6.17l17.59,45.89z" class="cls-15" id="_Path_15"/>
   <path d="m61.797513,150.667513a63.61,63.61 0 0 1 -7.41,-15l-46.75,13.54a112.93,112.93 0 0 0 15.49,31.25l38.67,-29.79z" class="cls-16" id="_Path_16"/>
   <path d="m74.927513,65.197513a63.33,63.33 0 0 1 13.47,-8.26l-17.58,-45.9a111.08,111.08 0 0 0 -28.69,17.77l32.8,36.39z" class="cls-17" id="_Path_17"/>
  </g>
 </g>
</svg>