<svg width="128" height="215" xmlns="http://www.w3.org/2000/svg">
 <defs>
  <style>.cls-1{fill:#fff;}.cls-2{fill:none;}.cls-3{fill:#63b134;}.cls-4{fill:#e3b535;}.cls-5{fill:#c31b2d;}.cls-6{fill:#4c9c37;}.cls-7{fill:#3e7e45;}.cls-8{fill:#fac00f;}.cls-9{fill:#e6412d;}.cls-10{fill:#f49a2d;}.cls-11{fill:#1594d2;}.cls-12{fill:#a01a42;}.cls-13{fill:#2eb9de;}.cls-14{fill:#eb682f;}.cls-15{fill:#e3233b;}.cls-16{fill:#dc1567;}.cls-17{fill:#18496a;}.cls-18{fill:#c6972c;}.cls-19{fill:#02689c;}</style>
 </defs>
 <title>Echo.ODS 1</title>
 <g>
  <title>background</title>
  <rect x="-1" y="-1" width="130" height="217" id="canvas_background" fill="none"/>
 </g>
 <g>
  <title>Layer 1</title>
  <path class="cls-1" d="m125.974998,145.67435c0,2.29 -0.33,4.25 -0.33,11.78l-105.64,0c4.26,19.96 23.89,36.64 44.48,36.64c14.39,0 31.73,-10.15 38.92,-22.58l14.39,9.16c-9.48,17.35 -33.68,30.42 -53.31,30.42c-34,0 -62.46,-27.81 -62.46,-61.84s28.45,-62.16 62.46,-62.16c30.09,0 61.16,23.88 61.16,54a30.75,30.75 0 0 0 0.33,4.58zm-18,-4.58c-4.25,-20 -23.22,-36.65 -43.5,-36.65c-20.58,0 -40.21,16.65 -44.47,36.65l87.97,0z" id="svg_1"/>
 </g>
</svg>