<svg width="260" height="260" xmlns="http://www.w3.org/2000/svg">
 <metadata id="metadata29">image/svg+xmlLogoODScirculo</metadata>
 <defs>
  <style>.cls-1{fill:#63b134;}.cls-2{fill:#e3b535;}.cls-3{fill:#c31b2d;}.cls-4{fill:#4c9c37;}.cls-5{fill:#3e7e45;}.cls-6{fill:#fac00f;}.cls-7{fill:#e6412d;}.cls-8{fill:#f49a2d;}.cls-9{fill:#1594d2;}.cls-10{fill:#a01a42;}.cls-11{fill:#2eb9de;}.cls-12{fill:#eb682f;}.cls-13{fill:#e3233b;}.cls-14{fill:#dc1567;}.cls-15{fill:#18496a;}.cls-16{fill:#c6972c;}.cls-17{fill:#02689c;}</style>
 </defs>
 <title>LogoODScirculo</title>
 <g>
  <title>background</title>
  <rect x="-1" y="-1" width="262" height="262" id="canvas_background" fill="none"/>
 </g>
 <g>
  <title>Layer 1</title>
  <g stroke="null" id="_Group_">
   <path stroke="null" id="_Path_" class="cls-1" d="m68.149855,93.287016a72.774977,72.774977 0 0 1 11.415683,-14.840388l-37.409192,-41.518838a129.602246,129.602246 0 0 0 -23.721789,31.278971l49.715298,25.080255z"/>
   <path stroke="null" id="_Path_2" class="cls-2" d="m159.817787,63.960127a71.211029,71.211029 0 0 1 15.673732,9.954475l37.500518,-41.450344a127.376188,127.376188 0 0 0 -33.231052,-20.982025l-19.943198,52.477893z"/>
   <path stroke="null" id="_Path_3" class="cls-3" d="m245.686553,76.448884l-49.692467,25.114502a73.185942,73.185942 0 0 1 4.965822,17.785634l55.286151,-5.285461a128.415015,128.415015 0 0 0 -10.559507,-37.569012"/>
   <path stroke="null" id="_Path_4" class="cls-4" d="m192.420977,94.257349l49.692467,-25.114502a129.202697,129.202697 0 0 0 -23.219499,-31.17623l-37.500518,41.427513a72.786393,72.786393 0 0 1 11.02755,14.840388"/>
   <path stroke="null" id="_Path_5" class="cls-5" d="m58.263874,129.999852c0,-1.141568 0,-2.283137 0.091325,-3.424705l-55.297567,-5.011485c-0.171235,2.774011 -0.285392,5.570853 -0.285392,8.390527a130.698151,130.698151 0 0 0 3.767175,31.199061l53.413979,-15.525328a73.40284,73.40284 0 0 1 -1.689521,-15.62807"/>
   <path stroke="null" id="_Path_6" class="cls-6" d="m185.457411,175.993637a72.946213,72.946213 0 0 1 -13.481921,12.842643l29.201316,47.843126a128.814564,128.814564 0 0 0 28.539207,-26.872517l-44.258602,-33.813252z"/>
   <path stroke="null" id="_Path_7" class="cls-7" d="m201.736174,129.999852a72.432507,72.432507 0 0 1 -1.643858,15.445419l53.402564,15.536744a130.138783,130.138783 0 0 0 3.732928,-30.982163c0,-2.648438 -0.091325,-5.285461 -0.251145,-7.899652l-55.286151,5.285461c0,0.879008 0,1.746599 0,2.614191"/>
   <path stroke="null" id="_Path_8" class="cls-8" d="m75.444476,177.135206l-44.201523,33.95024a128.803148,128.803148 0 0 0 28.858846,26.472968l29.189901,-47.808879a72.580911,72.580911 0 0 1 -13.847223,-12.614329"/>
   <path stroke="null" id="_Path_9" class="cls-9" d="m59.165713,118.538506a72.466754,72.466754 0 0 1 5.296877,-18.036779l-49.681051,-25.046008a128.997215,128.997215 0 0 0 -10.970471,38.059886l55.354646,5.0229z"/>
   <path stroke="null" id="_Path_10" class="cls-10" d="m194.384474,241.063029l-29.155654,-47.797464a70.685907,70.685907 0 0 1 -17.020783,6.997814l10.274114,55.286151a125.800824,125.800824 0 0 0 35.902322,-14.486501"/>
   <path stroke="null" id="_Path_11" class="cls-11" d="m197.968999,153.276429a73.357177,73.357177 0 0 1 -7.762664,16.176022l44.338512,33.858915a128.997215,128.997215 0 0 0 16.769638,-34.509609l-53.345485,-15.525328z"/>
   <path stroke="null" id="_Path_12" class="cls-12" d="m140.354048,201.861574a71.370848,71.370848 0 0 1 -18.698888,0.262561l-10.274114,55.274736a125.641004,125.641004 0 0 0 39.247117,-0.353886l-10.274114,-55.18341z"/>
   <path stroke="null" id="_Path_13" class="cls-13" d="m134.589128,57.533098a70.320606,70.320606 0 0 1 17.751387,3.424705l19.943198,-52.512141a125.127298,125.127298 0 0 0 -37.671753,-7.214711l-0.022831,56.302147z"/>
   <path stroke="null" id="_Path_14" class="cls-14" d="m113.744092,200.742837a70.857143,70.857143 0 0 1 -17.602983,-6.746668l-29.212732,47.820295a125.504016,125.504016 0 0 0 36.530185,14.144031l10.28553,-55.217657z"/>
   <path stroke="null" id="_Path_15" class="cls-15" d="m108.447215,60.695242a70.457594,70.457594 0 0 1 18.116688,-3.264885l0,-56.165159a125.035973,125.035973 0 0 0 -38.196874,7.043476l20.080186,52.386568z"/>
   <path stroke="null" id="_Path_16" class="cls-16" d="m70.56998,170.616851a72.615158,72.615158 0 0 1 -8.459021,-17.123524l-53.368317,15.456834a128.917305,128.917305 0 0 0 17.682893,35.674008l44.144445,-34.007319z"/>
   <path stroke="null" id="_Path_17" class="cls-17" d="m85.558771,73.047011a72.295519,72.295519 0 0 1 15.376925,-9.429354l-20.06877,-52.397984a126.805404,126.805404 0 0 0 -32.751594,20.285668l37.443439,41.541669z"/>
  </g>
 </g>
</svg>