<svg width="520" height="215" xmlns="http://www.w3.org/2000/svg">
 <defs>
  <style>.cls-1{fill:#000;}.cls-2{fill:none;}.cls-3{fill:#63b134;}.cls-4{fill:#e3b535;}.cls-5{fill:#c31b2d;}.cls-6{fill:#4c9c37;}.cls-7{fill:#3e7e45;}.cls-8{fill:#fac00f;}.cls-9{fill:#e6412d;}.cls-10{fill:#f49a2d;}.cls-11{fill:#1594d2;}.cls-12{fill:#a01a42;}.cls-13{fill:#2eb9de;}.cls-14{fill:#eb682f;}.cls-15{fill:#e3233b;}.cls-16{fill:#dc1567;}.cls-17{fill:#18496a;}.cls-18{fill:#c6972c;}.cls-19{fill:#02689c;}</style>
 </defs>
 <title>Echo.ODS 1</title>
 <g>
  <title>background</title>
  <rect fill="none" id="canvas_background" height="217" width="522" y="-1" x="-1"/>
 </g>
 <g>
  <title>Layer 1</title>
  <path id="svg_1" d="m129.495099,145.674347c0,2.29 -0.33,4.25 -0.33,11.78l-105.64,0c4.26,19.96 23.89,36.64 44.48,36.64c14.39,0 31.73,-10.15 38.92,-22.58l14.39,9.16c-9.48,17.35 -33.68,30.42 -53.31,30.42c-34,0 -62.46,-27.81 -62.46,-61.84s28.45,-62.16 62.46,-62.16c30.09,0 61.16,23.88 61.16,54a30.75,30.75 0 0 0 0.33,4.58zm-18,-4.58c-4.25,-20 -23.22,-36.65 -43.5,-36.65c-20.58,0 -40.21,16.65 -44.47,36.65l87.97,0z" class="cls-1"/>
  <path id="svg_2" d="m258.355099,180.684347c-9.48,17.34 -34,30.43 -53.64,30.43c-34,0 -62.47,-27.81 -62.47,-61.84s28.46,-62.18 62.47,-62.18c19.63,0 44.16,13.74 53.64,31.08l-15.37,8.18c-7.2,-12.43 -24.2,-21.92 -38.27,-21.92a44.83,44.83 0 1 0 0,89.66c14.07,0 31.07,-10.15 38.27,-22.58l15.37,9.17z" class="cls-1"/>
  <path id="svg_3" d="m376.415099,211.094347l-16.67,0l0,-70.33a36.45,36.45 0 0 0 -36.33,-36.32c-19.95,0 -35.65,16.36 -35.65,36.32l0,70.33l-17.35,0l0,-208.42l17.33,0l0,99.15c7.89,-7.85 23.92,-14.73 35.67,-14.73c28.78,0 53,23.88 53,53.66l0,70.34z" class="cls-1"/>
  <g stroke="null" id="_Group_">
   <path stroke="null" d="m421.283946,131.609965a35.592499,35.592499 0 0 1 5.543801,-7.21557l-18.16296,-20.158297a62.83694,62.83694 0 0 0 -11.475885,15.186133l24.095044,12.187735z" class="cls-3" id="_Path_"/>
   <path stroke="null" d="m465.806928,117.362179a34.36294,34.36294 0 0 1 7.614638,4.831951l18.216888,-20.125941a61.769165,61.769165 0 0 0 -16.178409,-10.192398l-9.653117,25.486387z" class="cls-4" id="_Path_2"/>
   <path stroke="null" d="m507.514866,123.42369l-24.138186,12.176949a35.258146,35.258146 0 0 1 2.415976,8.628485l26.856159,-2.566974a62.729084,62.729084 0 0 0 -5.133948,-18.249245" class="cls-5" id="_Path_3"/>
   <path stroke="null" d="m481.650983,132.073746l24.1274,-12.187735a62.696727,62.696727 0 0 0 -11.270958,-15.099848l-18.216888,20.125941a35.592499,35.592499 0 0 1 5.392803,7.21557" class="cls-6" id="_Path_4"/>
   <path stroke="null" d="m416.495137,149.438571q0,-0.819706 0,-1.650198l-26.856159,-2.426761c-0.075499,1.348201 -0.129427,2.707187 -0.129427,4.076959a63.516433,63.516433 0 0 0 1.822767,15.099848l25.885454,-7.549924a35.916068,35.916068 0 0 1 -0.80892,-7.549924" class="cls-7" id="_Path_5"/>
   <path stroke="null" d="m478.264302,171.786347a35.495429,35.495429 0 0 1 -6.546863,6.23408l14.183072,23.242981a62.793798,62.793798 0 0 0 13.881075,-13.050583l-21.517284,-16.426478z" class="cls-8" id="_Path_6"/>
   <path stroke="null" d="m486.170151,149.438571a35.010077,35.010077 0 0 1 -0.798135,7.549924l25.885454,7.549924a63.430148,63.430148 0 0 0 1.811982,-15.099848c0,-1.283487 0,-2.566974 -0.118642,-3.839676l-26.856159,2.566974c0,0.420639 0,0.852063 0,1.272701" class="cls-9" id="_Path_7"/>
   <path stroke="null" d="m424.832411,172.304056l-21.474141,16.512763a62.793798,62.793798 0 0 0 14.021288,12.856442l14.183072,-23.22141a35.042434,35.042434 0 0 1 -6.730218,-6.147795" class="cls-10" id="_Path_8"/>
   <path stroke="null" d="m416.926562,143.873198a35.07479,35.07479 0 0 1 2.566974,-8.757912l-24.1274,-12.176949a62.761441,62.761441 0 0 0 -5.317304,18.518885l26.87773,2.415976z" class="cls-11" id="_Path_9"/>
   <path stroke="null" d="m482.600116,203.366601l-14.161501,-23.210624a34.70808,34.70808 0 0 1 -8.261774,3.365109l4.961379,26.87773a60.830817,60.830817 0 0 0 17.429539,-7.032215" class="cls-12" id="_Path_10"/>
   <path stroke="null" d="m484.336598,160.741886a35.592499,35.592499 0 0 1 -3.764176,7.851921l21.571212,16.448049a62.427087,62.427087 0 0 0 8.153918,-16.760832l-25.960953,-7.539139z" class="cls-13" id="_Path_11"/>
   <path stroke="null" d="m456.358737,184.340792a35.117933,35.117933 0 0 1 -5.026092,0.366711a33.55402,33.55402 0 0 1 -4.055388,-0.248069l-4.993736,26.856159a62.556514,62.556514 0 0 0 9.049123,0.668708a61.477954,61.477954 0 0 0 10.019828,-0.819706l-4.993736,-26.823802z" class="cls-14" id="_Path_12"/>
   <path stroke="null" d="m453.554479,114.245139a34.082515,34.082515 0 0 1 8.628485,1.682555l9.707045,-25.486387a60.766104,60.766104 0 0 0 -18.33553,-3.505322l0,27.309154z" class="cls-15" id="_Path_13"/>
   <path stroke="null" d="m443.437581,183.790726a34.513939,34.513939 0 0 1 -8.552985,-3.235682l-14.183072,23.189053a61.273027,61.273027 0 0 0 17.742322,6.870431l4.993736,-26.823802z" class="cls-16" id="_Path_14"/>
   <path stroke="null" d="m440.859821,115.798266a34.395297,34.395297 0 0 1 8.801054,-1.585484l0,-27.298369a60.787675,60.787675 0 0 0 -18.551242,3.419037l9.750188,25.464816z" class="cls-17" id="_Path_15"/>
   <path stroke="null" d="m422.470363,169.165444a35.085576,35.085576 0 0 1 -4.109316,-8.337273l-25.885454,7.549924a62.556514,62.556514 0 0 0 8.520629,17.300112l21.474141,-16.512763z" class="cls-18" id="_Path_16"/>
   <path stroke="null" d="m429.739861,121.773492a35.064005,35.064005 0 0 1 7.474425,-4.573097l-9.707045,-25.45403a61.607381,61.607381 0 0 0 -15.897983,9.858044l18.130604,20.169083z" class="cls-19" id="_Path_17"/>
  </g>
 </g>
</svg>