<svg width="128" height="215" xmlns="http://www.w3.org/2000/svg">
 <defs>
  <style>.cls-1{fill:#fff;}.cls-2{fill:none;}.cls-3{fill:#63b134;}.cls-4{fill:#e3b535;}.cls-5{fill:#c31b2d;}.cls-6{fill:#4c9c37;}.cls-7{fill:#3e7e45;}.cls-8{fill:#fac00f;}.cls-9{fill:#e6412d;}.cls-10{fill:#f49a2d;}.cls-11{fill:#1594d2;}.cls-12{fill:#a01a42;}.cls-13{fill:#2eb9de;}.cls-14{fill:#eb682f;}.cls-15{fill:#e3233b;}.cls-16{fill:#dc1567;}.cls-17{fill:#18496a;}.cls-18{fill:#c6972c;}.cls-19{fill:#02689c;}</style>
 </defs>
 <title>Echo.ODS 1</title>
 <g>
  <title>background</title>
  <rect x="-1" y="-1" width="130" height="217" id="canvas_background" fill="none"/>
 </g>
 <g>
  <title>Layer 1</title>
  <path class="cls-2" d="m507.5251,148.27435c0,34 -27.47,61.84 -61.48,61.84a62,62 0 0 1 -61.82,-61.84c0,-34 27.8,-62.17 61.82,-62.17s61.48,28.14 61.48,62.17zm-16.68,0a44.81,44.81 0 1 0 -44.8,44.82a44.68,44.68 0 0 0 44.8,-44.82z" id="svg_4"/>
  <g id="_Group_" stroke="null">
   <path id="_Path_" class="cls-3" d="m33.994436,131.60996a35.5925,35.5925 0 0 1 5.5438,-7.21557l-18.16296,-20.15829a62.83694,62.83694 0 0 0 -11.47589,15.18613l24.09505,12.18774l0,-0.00001z" stroke="null"/>
   <path id="_Path_2" class="cls-4" d="m78.517416,117.36218a34.36294,34.36294 0 0 1 7.61464,4.83195l18.21688,-20.12594a61.76917,61.76917 0 0 0 -16.1784,-10.1924l-9.65312,25.48639z" stroke="null"/>
   <path id="_Path_3" class="cls-5" d="m120.225356,123.42369l-24.13819,12.17695a35.25815,35.25815 0 0 1 2.41598,8.62848l26.85616,-2.56697a62.72908,62.72908 0 0 0 -5.13395,-18.24924" stroke="null"/>
   <path id="_Path_4" class="cls-6" d="m94.361466,132.07375l24.1274,-12.18774a62.69673,62.69673 0 0 0 -11.27095,-15.09985l-18.21689,20.12594a35.5925,35.5925 0 0 1 5.3928,7.21557" stroke="null"/>
   <path id="_Path_5" class="cls-7" d="m29.205626,149.43857q0,-0.81971 0,-1.6502l-26.85616,-2.42676c-0.0755,1.3482 -0.12943,2.70719 -0.12943,4.07696a63.51643,63.51643 0 0 0 1.82277,15.09985l25.88545,-7.54992a35.91607,35.91607 0 0 1 -0.80892,-7.54993" stroke="null"/>
   <path id="_Path_6" class="cls-8" d="m90.974786,171.78635a35.49543,35.49543 0 0 1 -6.54686,6.23408l14.18307,23.24298a62.7938,62.7938 0 0 0 13.88108,-13.05058l-21.51729,-16.42648z" stroke="null"/>
   <path id="_Path_7" class="cls-9" d="m98.880636,149.43857a35.01008,35.01008 0 0 1 -0.79813,7.54993l25.88545,7.54992a63.43015,63.43015 0 0 0 1.81198,-15.09985c0,-1.28349 0,-2.56697 -0.11864,-3.83968l-26.85616,2.56698c0,0.42064 0,0.85206 0,1.2727" stroke="null"/>
   <path id="_Path_8" class="cls-10" d="m37.542896,172.30406l-21.47414,16.51276a62.7938,62.7938 0 0 0 14.02129,12.85644l14.18307,-23.22141a35.04243,35.04243 0 0 1 -6.73022,-6.14779" stroke="null"/>
   <path id="_Path_9" class="cls-11" d="m29.637046,143.8732a35.07479,35.07479 0 0 1 2.56698,-8.75791l-24.1274,-12.17695a62.76144,62.76144 0 0 0 -5.31731,18.51888l26.87773,2.41598z" stroke="null"/>
   <path id="_Path_10" class="cls-12" d="m95.310606,203.3666l-14.1615,-23.21062a34.70808,34.70808 0 0 1 -8.26178,3.36511l4.96138,26.87773a60.83082,60.83082 0 0 0 17.42954,-7.03222" stroke="null"/>
   <path id="_Path_11" class="cls-13" d="m97.047086,160.74189a35.5925,35.5925 0 0 1 -3.76418,7.85192l21.57121,16.44805a62.42709,62.42709 0 0 0 8.15392,-16.76084l-25.96095,-7.53914l0,0.00001z" stroke="null"/>
   <path id="_Path_12" class="cls-14" d="m69.069226,184.34079a35.11793,35.11793 0 0 1 -5.02609,0.36671a33.55402,33.55402 0 0 1 -4.05539,-0.24807l-4.99374,26.85616a62.55651,62.55651 0 0 0 9.04912,0.66871a61.47795,61.47795 0 0 0 10.01983,-0.8197l-4.99373,-26.82381z" stroke="null"/>
   <path id="_Path_13" class="cls-15" d="m66.264966,114.24514a34.08252,34.08252 0 0 1 8.62848,1.68255l9.70705,-25.48638a60.7661,60.7661 0 0 0 -18.33553,-3.50533l0,27.30916z" stroke="null"/>
   <path id="_Path_14" class="cls-16" d="m56.148066,183.79073a34.51394,34.51394 0 0 1 -8.55298,-3.23569l-14.18308,23.18906a61.27303,61.27303 0 0 0 17.74233,6.87043l4.99373,-26.8238z" stroke="null"/>
   <path id="_Path_15" class="cls-17" d="m53.570306,115.79827a34.3953,34.3953 0 0 1 8.80106,-1.58549l0,-27.29837a60.78768,60.78768 0 0 0 -18.55125,3.41904l9.75019,25.46482z" stroke="null"/>
   <path id="_Path_16" class="cls-18" d="m35.180846,169.16544a35.08558,35.08558 0 0 1 -4.10931,-8.33727l-25.88546,7.54993a62.55651,62.55651 0 0 0 8.52063,17.30011l21.47414,-16.51277z" stroke="null"/>
   <path id="_Path_17" class="cls-19" d="m42.450346,121.77349a35.06401,35.06401 0 0 1 7.47443,-4.57309l-9.70705,-25.45404a61.60738,61.60738 0 0 0 -15.89798,9.85805l18.1306,20.16908z" stroke="null"/>
  </g>
 </g>
</svg>