<svg version="1" xmlns="http://www.w3.org/2000/svg" width="933.333" height="933.333" viewBox="0 0 700.000000 700.000000"><path d="M332.7 3.6c-.1.1-4.5.4-9.8.8-9 .6-29.5 3.4-37.4 5-10.5 2.3-14.2 3.1-20.5 4.7-9.5 2.5-27 7.9-27 8.4 0 .2 2 5.4 4.4 11.7 2.4 6.2 7.6 19.8 11.6 30.3 3.9 10.4 7.6 19.9 8.1 21 .4 1.1 1.8 4.5 2.9 7.5 1.1 3 2.5 6.4 2.9 7.5.5 1.1 6 15.3 12.1 31.5 6.2 16.2 11.5 29.8 11.9 30.2.4.5 5.2-.4 10.6-1.7 5.5-1.4 11.6-2.8 13.5-3.1 1.9-.2 4.4-.7 5.5-.9 1.1-.2 5.6-.7 10-1.1 4.4-.3 8.3-.8 8.6-1 .4-.2.6-34.2.5-75.6l-.1-75.2-3.8-.1c-2.1 0-3.9.1-4 .1zM362.9 3.3c-.1.1-.2 34.2-.3 75.9l-.2 75.6 7.1.7c3.8.4 7.7.8 8.5 1 .8.2 3.4.6 5.7.9 2.2.4 8.5 1.8 14 3.2 5.4 1.4 10.4 2.7 11.2 2.7.9.1 2.5-2.5 4.3-7.3 1.6-4.1 5.5-14.5 8.8-23 3.2-8.5 13.1-34.6 22-58 8.8-23.4 16.9-44.5 18-47 1.7-4.2 1.7-4.6.2-5.5-4.9-2.8-35.3-11.1-50.7-13.9-1.1-.2-3.6-.6-5.5-1-1.9-.3-5.5-.8-8-1.1-2.5-.3-5.6-.7-7-1-1.4-.2-6.1-.7-10.5-1-4.4-.3-10.1-.8-12.7-1-2.7-.2-4.9-.3-4.9-.2zM214 31.7c-30.4 13.9-57.2 30.5-81.5 50.6l-2.9 2.5 3.4 3.8c1.8 2.2 5 5.7 7 7.9 4.2 4.5 24.6 27.1 29.4 32.5 4.9 5.5 22 24.4 23.1 25.6.5.6 4.4 4.9 8.5 9.5 8.8 9.8 15.1 16.8 20.2 22.4 2 2.2 4.8 5.3 6.2 6.9l2.5 3 10.4-7.1c5.7-4 15.1-9.7 20.9-12.8l10.6-5.6-6-15.2c-3.3-8.4-6.4-16.3-6.8-17.7-.5-1.4-3.5-9.5-6.8-18S242.1 93.7 237 80.5c-5-13.2-10.6-27.8-12.4-32.5-1.8-4.7-4.1-10.6-5.1-13.3-1-2.6-1.8-4.7-1.9-4.6 0 0-1.7.7-3.6 1.6zM483 33.3c-.5 1.2-9.8 25.6-20.5 54.2-10.8 28.6-20 52.9-20.5 54-.5 1.1-3.3 8.4-6.3 16.2l-5.4 14.3 9.1 4.9c9.5 5 21.2 12.5 28 18 4.8 3.8 5.9 3.8 8.6.3 1.2-1.5 6.1-7 10.9-12.2 4.8-5.2 10.7-11.7 13.2-14.5 5.5-6.2 4.8-5.4 14.9-16.5 4.7-5.1 9.3-10.2 10.3-11.4 1-1.2 3.3-3.7 5.1-5.6 1.7-1.9 9.5-10.5 17.1-19 7.7-8.5 15.6-17.3 17.7-19.5 5.8-6.3 7.8-8.8 7.8-9.4-.1-.8-18.6-15.4-27.9-21.9-17-11.9-39.7-24.9-55.4-31.6l-5.8-2.5-.9 2.2zM103.8 109.3c-16 17-27.5 31.7-39.3 49.7-7.4 11.4-14.5 23.3-14.5 24.4 0 .2 15.9 8.4 35.3 18.2 19.3 9.7 49.3 24.8 66.6 33.6 17.2 8.7 31.5 15.8 31.6 15.6.1-.2 1.5-2.3 3-4.8 4.6-7.4 15.8-22.1 21.6-28.4 3-3.2 5.4-6.2 5.4-6.6 0-.5-1.8-2.8-4-5.2-2.2-2.3-7.8-8.6-12.5-13.8-10.9-12.1-9.2-10.2-19-21.1-4.7-5.1-11-12-14-15.4-3-3.3-5.9-6.5-6.5-7.1-.5-.6-4.1-4.6-8-9-12-13.5-26.7-29.7-30.7-33.9-2.1-2.2-3.8-4.3-3.8-4.8 0-2.3-3.5.3-11.2 8.6zM583.8 108.2c-3.1 3.5-6.4 7.2-7.5 8.3-1 1.1-7.9 8.7-15.3 17-7.4 8.2-15.3 17-17.6 19.5-2.3 2.5-9.2 10.1-15.4 17-6.3 6.9-15.2 16.7-19.9 21.9-4.7 5.2-9.5 10.4-10.6 11.7-1.1 1.2-3.5 3.8-5.2 5.8-1.8 1.9-3.3 3.8-3.3 4.2 0 .3 2.4 3.4 5.4 6.7 7 8.1 16.6 21.2 20.5 28l3.1 5.4 34.9-17.6c89.9-45.3 98.1-49.6 98.1-51.2 0-.8-.4-1.9-.9-2.5-.5-.5-2.1-3.2-3.6-5.9-9.4-17.1-29.8-45.2-43.7-60-2.5-2.8-6.6-7.2-9-9.8l-4.3-4.8-5.7 6.3zM37.3 208.8C25.4 235.6 15.8 267.9 12 294c-.6 4.1-1.3 8.5-1.5 9.7-.3 2.1.1 2.3 3.8 2.4 2.3.1 5.1.3 6.2.4 1.1.1 5.6.5 10 .9s10 .9 12.5 1.1c5.3.6 12.8 1.3 22.5 2 3.9.3 8.4.8 10 1 1.7.2 6.4.7 10.5 1 4.1.4 9.3.8 11.6 1 2.3.2 7.4.7 11.5 1 4.1.3 8.8.8 10.4 1 1.7.2 6.6.7 11 1 4.4.3 9.4.8 11 1 1.7.2 6.2.7 10.2 1 8.2.7 7.2 2 10.3-12.5 1.1-5.2 3.9-14.7 6.1-21 2.2-6.3 4.3-12.2 4.5-13.1.5-1.3-9.3-6.6-46.3-25.2-25.7-12.9-55.7-28-66.6-33.5l-19.9-10-2.5 5.6zM625 224.1c-19.5 10-49.3 25-66.2 33.5-17 8.5-30.8 15.6-30.8 15.9 0 .2 1.3 3.9 2.9 8.2 3 8.1 7 21.6 7.7 26.2.3 1.4 1 5 1.6 7.9l1.2 5.4 8.3-.7c4.6-.3 9.2-.8 10.1-1 .9-.1 5.1-.6 9.2-.9 4.1-.4 8.9-.8 10.5-1 2.8-.4 5.7-.6 23-2.2 3.3-.3 7.6-.7 9.5-.9 1.9-.3 6.4-.7 10-1 7.7-.6 15-1.4 20.5-2 2.2-.3 7.2-.7 11-1.1 3.9-.3 8.1-.7 9.5-.8 1.4-.2 6.8-.7 12-1.1 5.2-.4 10.2-.9 11-1.1.8-.1 2-.3 2.7-.3 1.4-.1 1-3.9-2.3-21.6-3.2-17-3.1-16.6-6-26.8-5.3-18.9-17.7-52.8-19.3-52.7-.3.1-16.6 8.2-36.1 18.1zM8.3 328.6c-1.4 3.8-.6 45.4 1.3 59.9.2 2.2.7 5.8 1 8 1.5 11.6 5.9 34.6 7 36.6.2.4 4.8-.6 10.1-2.2 26.3-7.7 86-25.1 87.8-25.5 1.1-.2 11.7-3.3 23.5-6.7l21.5-6.4-.1-2.9c-.1-1.6-.9-8.1-1.7-14.4-.8-6.3-1.5-16.4-1.6-22.5-.1-6-.3-11.1-.5-11.2-.6-.6-4.2-1.1-12.7-1.8-4.6-.3-10-.8-11.9-1-1.9-.2-6.6-.7-10.5-1-3.8-.3-9-.8-11.5-1-4.8-.5-10.5-1.1-21-2-3.6-.3-8.5-.7-11-.9-2.5-.3-7.6-.7-11.5-1.1-3.8-.3-8.6-.8-10.5-1-1.9-.2-7.2-.7-11.7-1-4.5-.3-9.2-.8-10.5-1-1.2-.2-6.2-.6-11-1-4.7-.3-9.8-.8-11.2-1.1-1.8-.3-2.8.1-3.3 1.2zM681.7 329.6c-.1.1-4.2.5-9.1.9-5 .4-9.7.8-10.5 1-.9.2-5.2.6-9.6.9-4.4.4-9.6.8-11.5 1.1-1.9.2-6.6.7-10.5 1-3.8.3-8.9.8-11.2 1-2.4.3-6.2.7-8.5 1-2.4.2-7.4.7-11.3 1-3.8.3-8.6.8-10.5 1-4.8.6-13.3 1.4-20.5 2-3.3.2-8 .7-10.5 1-2.5.3-6.7.7-9.4 1-2.8.3-5.1.7-5.2.8-.1.1-.4 6.3-.7 13.7-.3 7.4-.8 15.3-1.2 17.5-1.1 8.2-1.5 11.1-2.1 14l-.5 3.1 8.3 2.3c4.6 1.3 11.7 3.4 15.8 4.7 8.2 2.5 37.7 11.1 42.5 12.4 2.7.7 10.3 2.9 60.3 17.5 8.9 2.6 16.5 4.6 16.7 4.3.9-.9 6-28.6 7-38 .3-2.9.8-6.2 1-7.3 1.3-6.3 2.1-34.2 1.6-53.8l-.1-4.8-5 .2c-2.8.2-5.1.4-5.3.5zM153.5 417.1c-7.1 2.1-34.8 10.1-61.5 17.8-64.2 18.7-66.4 19.3-67.4 20.2-.9.8 2.4 10.8 8.9 26.9 8.4 20.6 19 40.8 30.8 58.7l6.7 10.2 16.3-12.5c17.4-13.4 26.5-20.4 38.8-29.9 4.2-3.3 8.8-6.8 10.1-7.7 6.7-5 49.6-38.3 51.5-40.1 2-1.8 2.1-2.3.9-3.6-3.3-3.7-13.6-23.7-17.6-34.1-1.8-4.7-3.6-8.8-3.9-9.1-.3-.4-6.4 1.1-13.6 3.2zM531.9 415.7c-5.4 14.4-11.3 26.7-17.8 37.4l-1.9 3.2 6.1 4.6c3.4 2.5 6.9 5.2 7.7 5.8.8.7 20.2 15.5 43 32.9 22.8 17.5 46.2 35.3 51.9 39.7l10.5 8 1.5-2.2c3.6-5.3 10.3-16.1 14.2-23.1 7.6-13.6 9.6-17.4 13.4-26 2-4.7 4.5-10.3 5.5-12.5 2.7-5.9 8.7-22.5 9.4-26.2.6-2.5.4-3.2-1.1-3.7-1-.3-12.1-3.5-24.8-7.1-12.6-3.7-30-8.7-38.5-11.2s-18.4-5.4-22-6.4c-3.6-1-8.7-2.5-11.5-3.3-24.3-7.1-43.5-12.6-44-12.6-.3 0-1 1.2-1.6 2.7zM492 482.1c-6.9 7.6-18.6 18.5-25.8 23.8l-3.2 2.4 1.8 3.1c1.1 1.7 8.8 14.3 17.2 28.1 17.8 29.1 28.6 46.9 30.9 50.7 1.8 3 26.6 43.5 28 45.7.9 1.4 1.4 1 13.6-8.2 14.6-11.1 28-23.1 41.6-37.2 8.9-9.3 21.9-24.5 21.9-25.7 0-.4-1.2-1.5-2.7-2.5-1.6-1-3-2-3.3-2.3-.3-.4-14.9-11.6-32.5-25s-34.7-26.4-38-29c-3.3-2.5-9.8-7.5-14.5-11-4.7-3.6-8.7-6.7-9-7-.8-.8-16.4-12.6-17.6-13.3-.7-.4-4.2 2.7-8.4 7.4zM184.5 491.1c-9.9 7.7-19 14.7-20.3 15.7-1.3.9-7.9 6-14.7 11.2-6.7 5.2-24.2 18.7-38.8 29.9l-26.6 20.3 4.2 5.1c11.7 14.1 31 33.5 43.7 43.7 3 2.5 5.7 4.8 6 5.1.3.3 5.7 4.4 12.1 9.1l11.5 8.6 9-14.6c4.9-8 9.3-15.3 9.9-16.3 1.6-2.8 9.6-15.9 13.1-21.4 7-11 45.4-74.4 45.9-75.7.4-.9-.8-2.4-3.2-4-6.4-4.3-10.4-7.8-22.2-19.5-6.3-6.2-11.5-11.3-11.5-11.2-.1 0-8.2 6.3-18.1 14zM433.2 526.1c-6.2 3.1-16.5 7.3-22.8 9.5-11.1 3.7-11.5 3.9-10.9 6.3.4 1.4.8 3.9 1.1 5.6.2 1.6.6 3.7.7 4.5.2.8.7 3.3 1.1 5.5.4 2.2 1.6 8.5 2.6 14 1.1 5.5 2.2 11.3 2.5 13 .8 4.7 4.4 23.8 4.8 26 .3 1.1.8 4 1.2 6.5.4 2.5.9 5.4 1.1 6.5 1.2 6.1 5.6 29.7 6.3 33.5 3.4 19.3 5.6 29.6 6.4 30.1.6.4 2.2.3 3.6-.1s5.5-1.6 9.1-2.5c23.3-6.3 50.9-17.5 74.8-30.6 9.2-5 9.1-4 .6-17.9-4.2-6.9-21.6-35.5-38.7-63.5-17-28.1-31.2-51.2-31.6-51.5-.3-.3-5.7 2-11.9 5.1zM248.5 539.2c-5.4 9-11.3 18.5-13 21.3-9.9 15.6-53.9 88.2-54.2 89.6-.3 1.2 2.8 3.2 12.4 8.1 28.9 14.8 51.6 23.1 82.9 30.3 1.9.4 2.2-.2 3.4-6.8 1.5-8.4 1.3-7.7 3.4-18.7 2-10.8 2.2-12.3 3.6-19 .6-3 1.3-6.9 1.5-8.5.3-1.7 1-5.3 1.5-8 1.5-7.7 1.9-10.2 4-21.5 1-5.8 3.1-16.6 4.5-24 1.4-7.4 2.8-14.6 3-16 1.3-7.6 1.8-10.1 3.1-16.5 1.9-9.3 1.9-9.2-1.8-10-6.6-1.4-24.6-7.9-33.6-12.1-5.2-2.4-9.7-4.4-10.1-4.4-.4 0-5.1 7.3-10.6 16.2zM375.8 543.6c-1.4 1.4-25.5 2.2-40.8 1.3l-7.4-.4-1.2 6c-.7 3.3-1.5 8-1.9 10.4-.3 2.5-.8 4.7-1 5-.1.3-.6 2.4-.9 4.6-.3 2.2-.8 5.1-1.1 6.5-1.2 5.9-1.6 7.7-2.1 11-.3 1.9-.9 5.3-1.4 7.5-.5 2.2-1.2 5.6-1.5 7.5-.6 3.6-4.1 22.6-5 27-.3 1.4-1.6 8.6-3 16-4.3 23.8-7.4 40.4-8 43.6-.8 3.5-1 3.4 11 4.8 21.2 2.6 58.2 2.6 76 .2 9-1.3 15.1-2 15.8-1.8 1.7.5 1.7-2.9.3-11.2-2.9-15.8-4.6-25.1-5.1-27.6-.3-1.4-.9-5-1.5-8s-1.2-6.6-1.5-8c-.3-1.4-1-5.2-1.6-8.5-1.6-8.8-1.7-9.2-5.4-28.9-1.9-10-3.7-19.7-4-21.6-.3-1.9-.8-4.2-1-5-.2-.8-.7-3.1-1-5-.9-5.4-1.7-10.3-2.2-12.5-.2-1.1-.8-4.2-1.2-6.8-.8-4.8-2.2-7.3-3.3-6.1z"/></svg>